<svg xmlns="http://www.w3.org/2000/svg" viewBox="0 0 512 512">
  <rect width="512" height="512" rx="112" fill="#17172b"/>
  <path fill="#ffffff" d="M132 152h38l19 150c4 33 32 58 66 58h92c31 0 58-21 65-52l26-112H205l-6-45c-3-21-21-37-42-37h-25v38Zm97 84h153l-15 63c-2 11-11 18-22 18h-91c-12 0-22-9-24-21l-1-60Z"/>
  <circle cx="252" cy="397" r="30" fill="#2f6df6"/>
  <circle cx="366" cy="397" r="30" fill="#2f6df6"/>
  <path fill="#22c55e" d="M346 101a28 28 0 0 1 47 20v22h22a28 28 0 1 1 0 56h-22v22a28 28 0 1 1-56 0v-22h-22a28 28 0 1 1 0-56h22v-22c0-7 3-14 9-20Z"/>
</svg>
